<svg id="はてなのアイコン" xmlns="http://www.w3.org/2000/svg" width="19.759" height="19.759" viewBox="0 0 19.759 19.759">
  <path id="パス_3" data-name="パス 3" d="M16.865,2.894A9.88,9.88,0,1,0,19.759,9.88,9.853,9.853,0,0,0,16.865,2.894ZM15.417,4.343A7.83,7.83,0,1,1,9.88,2.049,7.8,7.8,0,0,1,15.417,4.343Z" transform="translate(0 0)" fill="#707070"/>
  <path id="パス_4" data-name="パス 4" d="M218.012,329.326a.993.993,0,1,0,.992.993A.993.993,0,0,0,218.012,329.326Z" transform="translate(-208.644 -316.617)" fill="#707070"/>
  <path id="パス_5" data-name="パス 5" d="M180.953,132.878l.676.542a.365.365,0,0,0,.468-.01.917.917,0,0,1,.343-.3,2.168,2.168,0,0,1,1.108-.268,1.683,1.683,0,0,1,1.091.39,1.225,1.225,0,0,1,.288.352.641.641,0,0,1,.082.293,1.212,1.212,0,0,1-.124.573,1.158,1.158,0,0,1-.221.3,2.477,2.477,0,0,1-.539.385c-.212.119-.44.224-.67.351a2.075,2.075,0,0,0-.747.669,1.81,1.81,0,0,0-.234.52,2.209,2.209,0,0,0-.075.585v.39a.365.365,0,0,0,.365.365h.879a.365.365,0,0,0,.365-.365v-.39a.6.6,0,0,1,.017-.158.2.2,0,0,1,.047-.088.623.623,0,0,1,.164-.119c.132-.074.344-.174.584-.3a3.886,3.886,0,0,0,1.166-.9,2.692,2.692,0,0,0,.458-.789,2.918,2.918,0,0,0,.173-1.015,2.243,2.243,0,0,0-.266-1.039,2.933,2.933,0,0,0-1.116-1.148,3.324,3.324,0,0,0-1.689-.456,3.785,3.785,0,0,0-1.906.48,2.13,2.13,0,0,0-.7.6.365.365,0,0,0,.01.561Z" transform="translate(-173.838 -126.169)" fill="#707070"/>
</svg>
